<mxfile host="app.diagrams.net" modified="2023-03-14T05:00:53.883Z" agent="5.0 (Macintosh; Intel Mac OS X 10_15_7) AppleWebKit/537.36 (KHTML, like Gecko) Chrome/110.0.0.0 Safari/537.36" etag="nJbDxlgw2wSmMBPwDABo" version="20.4.0" type="github">
  <diagram id="C5RBs43oDa-KdzZeNtuy" name="Page-1">
    <mxGraphModel dx="742" dy="499" grid="1" gridSize="10" guides="1" tooltips="1" connect="1" arrows="1" fold="1" page="1" pageScale="1" pageWidth="827" pageHeight="1169" math="0" shadow="0">
      <root>
        <mxCell id="WIyWlLk6GJQsqaUBKTNV-0" />
        <mxCell id="WIyWlLk6GJQsqaUBKTNV-1" parent="WIyWlLk6GJQsqaUBKTNV-0" />
        <mxCell id="KTdyoz5PvURL2kulKBjL-37" value="" style="edgeStyle=orthogonalEdgeStyle;rounded=0;orthogonalLoop=1;jettySize=auto;html=1;" edge="1" parent="WIyWlLk6GJQsqaUBKTNV-1" source="WIyWlLk6GJQsqaUBKTNV-3" target="WIyWlLk6GJQsqaUBKTNV-6">
          <mxGeometry relative="1" as="geometry" />
        </mxCell>
        <mxCell id="WIyWlLk6GJQsqaUBKTNV-3" value="Play Now" style="rounded=1;whiteSpace=wrap;html=1;fontSize=12;glass=0;strokeWidth=1;shadow=0;" parent="WIyWlLk6GJQsqaUBKTNV-1" vertex="1">
          <mxGeometry x="160" y="80" width="120" height="40" as="geometry" />
        </mxCell>
        <mxCell id="KTdyoz5PvURL2kulKBjL-28" value="" style="edgeStyle=orthogonalEdgeStyle;rounded=0;orthogonalLoop=1;jettySize=auto;html=1;" edge="1" parent="WIyWlLk6GJQsqaUBKTNV-1" source="WIyWlLk6GJQsqaUBKTNV-6" target="KTdyoz5PvURL2kulKBjL-2">
          <mxGeometry relative="1" as="geometry" />
        </mxCell>
        <mxCell id="KTdyoz5PvURL2kulKBjL-38" value="" style="edgeStyle=orthogonalEdgeStyle;rounded=0;orthogonalLoop=1;jettySize=auto;html=1;" edge="1" parent="WIyWlLk6GJQsqaUBKTNV-1" source="WIyWlLk6GJQsqaUBKTNV-6" target="WIyWlLk6GJQsqaUBKTNV-10">
          <mxGeometry relative="1" as="geometry" />
        </mxCell>
        <mxCell id="WIyWlLk6GJQsqaUBKTNV-6" value="Match ended" style="rhombus;whiteSpace=wrap;html=1;shadow=0;fontFamily=Helvetica;fontSize=12;align=center;strokeWidth=1;spacing=6;spacingTop=-4;" parent="WIyWlLk6GJQsqaUBKTNV-1" vertex="1">
          <mxGeometry x="170" y="210" width="100" height="80" as="geometry" />
        </mxCell>
        <mxCell id="KTdyoz5PvURL2kulKBjL-40" value="" style="edgeStyle=orthogonalEdgeStyle;rounded=0;orthogonalLoop=1;jettySize=auto;html=1;" edge="1" parent="WIyWlLk6GJQsqaUBKTNV-1" source="WIyWlLk6GJQsqaUBKTNV-10" target="KTdyoz5PvURL2kulKBjL-36">
          <mxGeometry relative="1" as="geometry" />
        </mxCell>
        <mxCell id="KTdyoz5PvURL2kulKBjL-42" value="" style="edgeStyle=orthogonalEdgeStyle;rounded=0;orthogonalLoop=1;jettySize=auto;html=1;" edge="1" parent="WIyWlLk6GJQsqaUBKTNV-1" source="WIyWlLk6GJQsqaUBKTNV-10" target="KTdyoz5PvURL2kulKBjL-27">
          <mxGeometry relative="1" as="geometry" />
        </mxCell>
        <mxCell id="WIyWlLk6GJQsqaUBKTNV-10" value="Match starts in 30 minutes" style="rhombus;whiteSpace=wrap;html=1;shadow=0;fontFamily=Helvetica;fontSize=12;align=center;strokeWidth=1;spacing=6;spacingTop=-4;" parent="WIyWlLk6GJQsqaUBKTNV-1" vertex="1">
          <mxGeometry x="170" y="405" width="100" height="80" as="geometry" />
        </mxCell>
        <mxCell id="KTdyoz5PvURL2kulKBjL-5" value="" style="edgeStyle=orthogonalEdgeStyle;rounded=0;orthogonalLoop=1;jettySize=auto;html=1;entryX=0;entryY=0.5;entryDx=0;entryDy=0;" edge="1" parent="WIyWlLk6GJQsqaUBKTNV-1" source="KTdyoz5PvURL2kulKBjL-2" target="KTdyoz5PvURL2kulKBjL-10">
          <mxGeometry relative="1" as="geometry">
            <mxPoint x="460" y="250" as="targetPoint" />
          </mxGeometry>
        </mxCell>
        <mxCell id="KTdyoz5PvURL2kulKBjL-23" value="" style="edgeStyle=orthogonalEdgeStyle;rounded=0;orthogonalLoop=1;jettySize=auto;html=1;" edge="1" parent="WIyWlLk6GJQsqaUBKTNV-1" source="KTdyoz5PvURL2kulKBjL-2" target="KTdyoz5PvURL2kulKBjL-8">
          <mxGeometry relative="1" as="geometry" />
        </mxCell>
        <mxCell id="KTdyoz5PvURL2kulKBjL-2" value="Result is available" style="rhombus;whiteSpace=wrap;html=1;" vertex="1" parent="WIyWlLk6GJQsqaUBKTNV-1">
          <mxGeometry x="350" y="210" width="80" height="80" as="geometry" />
        </mxCell>
        <mxCell id="KTdyoz5PvURL2kulKBjL-8" value="Behavior:&lt;br&gt;Message:" style="whiteSpace=wrap;html=1;" vertex="1" parent="WIyWlLk6GJQsqaUBKTNV-1">
          <mxGeometry x="330" y="325" width="120" height="60" as="geometry" />
        </mxCell>
        <mxCell id="KTdyoz5PvURL2kulKBjL-16" value="" style="edgeStyle=orthogonalEdgeStyle;rounded=0;orthogonalLoop=1;jettySize=auto;html=1;" edge="1" parent="WIyWlLk6GJQsqaUBKTNV-1" source="KTdyoz5PvURL2kulKBjL-10" target="KTdyoz5PvURL2kulKBjL-15">
          <mxGeometry relative="1" as="geometry" />
        </mxCell>
        <mxCell id="KTdyoz5PvURL2kulKBjL-22" value="" style="edgeStyle=orthogonalEdgeStyle;rounded=0;orthogonalLoop=1;jettySize=auto;html=1;" edge="1" parent="WIyWlLk6GJQsqaUBKTNV-1" source="KTdyoz5PvURL2kulKBjL-10" target="KTdyoz5PvURL2kulKBjL-21">
          <mxGeometry relative="1" as="geometry" />
        </mxCell>
        <mxCell id="KTdyoz5PvURL2kulKBjL-10" value="The user predicted" style="rhombus;whiteSpace=wrap;html=1;" vertex="1" parent="WIyWlLk6GJQsqaUBKTNV-1">
          <mxGeometry x="530" y="210" width="80" height="80" as="geometry" />
        </mxCell>
        <mxCell id="KTdyoz5PvURL2kulKBjL-11" value="No" style="text;html=1;align=center;verticalAlign=middle;resizable=0;points=[];autosize=1;strokeColor=none;fillColor=none;" vertex="1" parent="WIyWlLk6GJQsqaUBKTNV-1">
          <mxGeometry x="360" y="290" width="40" height="30" as="geometry" />
        </mxCell>
        <mxCell id="KTdyoz5PvURL2kulKBjL-12" value="Yes" style="text;html=1;align=center;verticalAlign=middle;resizable=0;points=[];autosize=1;strokeColor=none;fillColor=none;" vertex="1" parent="WIyWlLk6GJQsqaUBKTNV-1">
          <mxGeometry x="460" y="225" width="40" height="30" as="geometry" />
        </mxCell>
        <mxCell id="KTdyoz5PvURL2kulKBjL-18" value="" style="edgeStyle=orthogonalEdgeStyle;rounded=0;orthogonalLoop=1;jettySize=auto;html=1;" edge="1" parent="WIyWlLk6GJQsqaUBKTNV-1" source="KTdyoz5PvURL2kulKBjL-15" target="KTdyoz5PvURL2kulKBjL-17">
          <mxGeometry relative="1" as="geometry" />
        </mxCell>
        <mxCell id="KTdyoz5PvURL2kulKBjL-20" value="" style="edgeStyle=orthogonalEdgeStyle;rounded=0;orthogonalLoop=1;jettySize=auto;html=1;" edge="1" parent="WIyWlLk6GJQsqaUBKTNV-1" source="KTdyoz5PvURL2kulKBjL-15" target="KTdyoz5PvURL2kulKBjL-19">
          <mxGeometry relative="1" as="geometry" />
        </mxCell>
        <mxCell id="KTdyoz5PvURL2kulKBjL-15" value="Correct prediction" style="rhombus;whiteSpace=wrap;html=1;" vertex="1" parent="WIyWlLk6GJQsqaUBKTNV-1">
          <mxGeometry x="690" y="210" width="80" height="80" as="geometry" />
        </mxCell>
        <mxCell id="KTdyoz5PvURL2kulKBjL-17" value="Behavior:&lt;br&gt;Message:" style="whiteSpace=wrap;html=1;" vertex="1" parent="WIyWlLk6GJQsqaUBKTNV-1">
          <mxGeometry x="830" y="220" width="120" height="60" as="geometry" />
        </mxCell>
        <mxCell id="KTdyoz5PvURL2kulKBjL-19" value="Behavior:&lt;br&gt;Message:" style="whiteSpace=wrap;html=1;" vertex="1" parent="WIyWlLk6GJQsqaUBKTNV-1">
          <mxGeometry x="670" y="325" width="120" height="60" as="geometry" />
        </mxCell>
        <mxCell id="KTdyoz5PvURL2kulKBjL-21" value="Behavior:&lt;br&gt;Message:" style="whiteSpace=wrap;html=1;" vertex="1" parent="WIyWlLk6GJQsqaUBKTNV-1">
          <mxGeometry x="510" y="325" width="120" height="60" as="geometry" />
        </mxCell>
        <mxCell id="KTdyoz5PvURL2kulKBjL-24" value="No" style="text;html=1;align=center;verticalAlign=middle;resizable=0;points=[];autosize=1;strokeColor=none;fillColor=none;" vertex="1" parent="WIyWlLk6GJQsqaUBKTNV-1">
          <mxGeometry x="540" y="290" width="40" height="30" as="geometry" />
        </mxCell>
        <mxCell id="KTdyoz5PvURL2kulKBjL-25" value="Yes" style="text;html=1;align=center;verticalAlign=middle;resizable=0;points=[];autosize=1;strokeColor=none;fillColor=none;" vertex="1" parent="WIyWlLk6GJQsqaUBKTNV-1">
          <mxGeometry x="780" y="225" width="40" height="30" as="geometry" />
        </mxCell>
        <mxCell id="KTdyoz5PvURL2kulKBjL-26" value="No" style="text;html=1;align=center;verticalAlign=middle;resizable=0;points=[];autosize=1;strokeColor=none;fillColor=none;" vertex="1" parent="WIyWlLk6GJQsqaUBKTNV-1">
          <mxGeometry x="700" y="290" width="40" height="30" as="geometry" />
        </mxCell>
        <mxCell id="KTdyoz5PvURL2kulKBjL-31" value="" style="edgeStyle=orthogonalEdgeStyle;rounded=0;orthogonalLoop=1;jettySize=auto;html=1;" edge="1" parent="WIyWlLk6GJQsqaUBKTNV-1" source="KTdyoz5PvURL2kulKBjL-27" target="KTdyoz5PvURL2kulKBjL-30">
          <mxGeometry relative="1" as="geometry" />
        </mxCell>
        <mxCell id="KTdyoz5PvURL2kulKBjL-33" value="" style="edgeStyle=orthogonalEdgeStyle;rounded=0;orthogonalLoop=1;jettySize=auto;html=1;" edge="1" parent="WIyWlLk6GJQsqaUBKTNV-1" source="KTdyoz5PvURL2kulKBjL-27" target="KTdyoz5PvURL2kulKBjL-32">
          <mxGeometry relative="1" as="geometry" />
        </mxCell>
        <mxCell id="KTdyoz5PvURL2kulKBjL-27" value="The user predicted" style="rhombus;whiteSpace=wrap;html=1;" vertex="1" parent="WIyWlLk6GJQsqaUBKTNV-1">
          <mxGeometry x="350" y="405" width="80" height="80" as="geometry" />
        </mxCell>
        <mxCell id="KTdyoz5PvURL2kulKBjL-29" value="Yes" style="text;html=1;align=center;verticalAlign=middle;resizable=0;points=[];autosize=1;strokeColor=none;fillColor=none;" vertex="1" parent="WIyWlLk6GJQsqaUBKTNV-1">
          <mxGeometry x="290" y="225" width="40" height="30" as="geometry" />
        </mxCell>
        <mxCell id="KTdyoz5PvURL2kulKBjL-30" value="&lt;div&gt;Behavior:&lt;/div&gt;&lt;div&gt;Message:&lt;/div&gt;" style="whiteSpace=wrap;html=1;" vertex="1" parent="WIyWlLk6GJQsqaUBKTNV-1">
          <mxGeometry x="510" y="415" width="120" height="60" as="geometry" />
        </mxCell>
        <mxCell id="KTdyoz5PvURL2kulKBjL-32" value="&lt;div&gt;Behavior:&lt;/div&gt;&lt;div&gt;Message:&lt;/div&gt;" style="whiteSpace=wrap;html=1;" vertex="1" parent="WIyWlLk6GJQsqaUBKTNV-1">
          <mxGeometry x="330" y="520" width="120" height="65" as="geometry" />
        </mxCell>
        <mxCell id="KTdyoz5PvURL2kulKBjL-34" value="Yes" style="text;html=1;align=center;verticalAlign=middle;resizable=0;points=[];autosize=1;strokeColor=none;fillColor=none;" vertex="1" parent="WIyWlLk6GJQsqaUBKTNV-1">
          <mxGeometry x="446" y="421" width="40" height="30" as="geometry" />
        </mxCell>
        <mxCell id="KTdyoz5PvURL2kulKBjL-35" value="No" style="text;html=1;align=center;verticalAlign=middle;resizable=0;points=[];autosize=1;strokeColor=none;fillColor=none;" vertex="1" parent="WIyWlLk6GJQsqaUBKTNV-1">
          <mxGeometry x="360" y="487" width="40" height="30" as="geometry" />
        </mxCell>
        <mxCell id="KTdyoz5PvURL2kulKBjL-45" value="" style="edgeStyle=orthogonalEdgeStyle;rounded=0;orthogonalLoop=1;jettySize=auto;html=1;" edge="1" parent="WIyWlLk6GJQsqaUBKTNV-1" source="KTdyoz5PvURL2kulKBjL-36" target="KTdyoz5PvURL2kulKBjL-44">
          <mxGeometry relative="1" as="geometry" />
        </mxCell>
        <mxCell id="KTdyoz5PvURL2kulKBjL-49" value="" style="edgeStyle=orthogonalEdgeStyle;rounded=0;orthogonalLoop=1;jettySize=auto;html=1;" edge="1" parent="WIyWlLk6GJQsqaUBKTNV-1" source="KTdyoz5PvURL2kulKBjL-36" target="KTdyoz5PvURL2kulKBjL-48">
          <mxGeometry relative="1" as="geometry" />
        </mxCell>
        <mxCell id="KTdyoz5PvURL2kulKBjL-36" value="The user predicted" style="rhombus;whiteSpace=wrap;html=1;" vertex="1" parent="WIyWlLk6GJQsqaUBKTNV-1">
          <mxGeometry x="180" y="595" width="80" height="80" as="geometry" />
        </mxCell>
        <mxCell id="KTdyoz5PvURL2kulKBjL-39" value="No" style="text;html=1;align=center;verticalAlign=middle;resizable=0;points=[];autosize=1;strokeColor=none;fillColor=none;" vertex="1" parent="WIyWlLk6GJQsqaUBKTNV-1">
          <mxGeometry x="190" y="325" width="40" height="30" as="geometry" />
        </mxCell>
        <mxCell id="KTdyoz5PvURL2kulKBjL-41" value="No" style="text;html=1;align=center;verticalAlign=middle;resizable=0;points=[];autosize=1;strokeColor=none;fillColor=none;" vertex="1" parent="WIyWlLk6GJQsqaUBKTNV-1">
          <mxGeometry x="190" y="520" width="40" height="30" as="geometry" />
        </mxCell>
        <mxCell id="KTdyoz5PvURL2kulKBjL-43" value="Yes" style="text;html=1;align=center;verticalAlign=middle;resizable=0;points=[];autosize=1;strokeColor=none;fillColor=none;" vertex="1" parent="WIyWlLk6GJQsqaUBKTNV-1">
          <mxGeometry x="290" y="421" width="40" height="30" as="geometry" />
        </mxCell>
        <mxCell id="KTdyoz5PvURL2kulKBjL-57" value="" style="edgeStyle=orthogonalEdgeStyle;rounded=0;orthogonalLoop=1;jettySize=auto;html=1;" edge="1" parent="WIyWlLk6GJQsqaUBKTNV-1" source="KTdyoz5PvURL2kulKBjL-44" target="KTdyoz5PvURL2kulKBjL-56">
          <mxGeometry relative="1" as="geometry" />
        </mxCell>
        <mxCell id="KTdyoz5PvURL2kulKBjL-44" value="&lt;div&gt;Behavior:&lt;/div&gt;&lt;div&gt;Message:&lt;/div&gt;" style="whiteSpace=wrap;html=1;" vertex="1" parent="WIyWlLk6GJQsqaUBKTNV-1">
          <mxGeometry x="160" y="755" width="120" height="60" as="geometry" />
        </mxCell>
        <mxCell id="KTdyoz5PvURL2kulKBjL-46" value="No" style="text;html=1;align=center;verticalAlign=middle;resizable=0;points=[];autosize=1;strokeColor=none;fillColor=none;" vertex="1" parent="WIyWlLk6GJQsqaUBKTNV-1">
          <mxGeometry x="190" y="695" width="40" height="30" as="geometry" />
        </mxCell>
        <mxCell id="KTdyoz5PvURL2kulKBjL-52" value="" style="edgeStyle=orthogonalEdgeStyle;rounded=0;orthogonalLoop=1;jettySize=auto;html=1;" edge="1" parent="WIyWlLk6GJQsqaUBKTNV-1" source="KTdyoz5PvURL2kulKBjL-48">
          <mxGeometry relative="1" as="geometry">
            <mxPoint x="530" y="635" as="targetPoint" />
          </mxGeometry>
        </mxCell>
        <mxCell id="KTdyoz5PvURL2kulKBjL-69" value="" style="edgeStyle=orthogonalEdgeStyle;rounded=0;orthogonalLoop=1;jettySize=auto;html=1;" edge="1" parent="WIyWlLk6GJQsqaUBKTNV-1" source="KTdyoz5PvURL2kulKBjL-48" target="KTdyoz5PvURL2kulKBjL-68">
          <mxGeometry relative="1" as="geometry" />
        </mxCell>
        <mxCell id="KTdyoz5PvURL2kulKBjL-48" value="&lt;div&gt;Behavior:&lt;/div&gt;&lt;div&gt;Message:&lt;/div&gt;" style="whiteSpace=wrap;html=1;" vertex="1" parent="WIyWlLk6GJQsqaUBKTNV-1">
          <mxGeometry x="326" y="605" width="120" height="60" as="geometry" />
        </mxCell>
        <mxCell id="KTdyoz5PvURL2kulKBjL-50" value="Yes" style="text;html=1;align=center;verticalAlign=middle;resizable=0;points=[];autosize=1;strokeColor=none;fillColor=none;" vertex="1" parent="WIyWlLk6GJQsqaUBKTNV-1">
          <mxGeometry x="270" y="615" width="40" height="30" as="geometry" />
        </mxCell>
        <mxCell id="KTdyoz5PvURL2kulKBjL-65" value="" style="edgeStyle=orthogonalEdgeStyle;rounded=0;orthogonalLoop=1;jettySize=auto;html=1;" edge="1" parent="WIyWlLk6GJQsqaUBKTNV-1" source="KTdyoz5PvURL2kulKBjL-56" target="KTdyoz5PvURL2kulKBjL-64">
          <mxGeometry relative="1" as="geometry" />
        </mxCell>
        <mxCell id="KTdyoz5PvURL2kulKBjL-56" value="Submit prediction" style="whiteSpace=wrap;html=1;" vertex="1" parent="WIyWlLk6GJQsqaUBKTNV-1">
          <mxGeometry x="160" y="895" width="120" height="60" as="geometry" />
        </mxCell>
        <mxCell id="KTdyoz5PvURL2kulKBjL-61" style="edgeStyle=orthogonalEdgeStyle;rounded=0;orthogonalLoop=1;jettySize=auto;html=1;entryX=1;entryY=0.5;entryDx=0;entryDy=0;" edge="1" parent="WIyWlLk6GJQsqaUBKTNV-1" source="KTdyoz5PvURL2kulKBjL-58" target="KTdyoz5PvURL2kulKBjL-56">
          <mxGeometry relative="1" as="geometry" />
        </mxCell>
        <mxCell id="KTdyoz5PvURL2kulKBjL-58" value="&lt;div&gt;Behavior:&lt;/div&gt;&lt;div&gt;Message:&lt;/div&gt;" style="whiteSpace=wrap;html=1;" vertex="1" parent="WIyWlLk6GJQsqaUBKTNV-1">
          <mxGeometry x="510" y="755" width="120" height="60" as="geometry" />
        </mxCell>
        <mxCell id="KTdyoz5PvURL2kulKBjL-64" value="&lt;div&gt;Behavior:&lt;/div&gt;&lt;div&gt;Message:&lt;/div&gt;" style="whiteSpace=wrap;html=1;" vertex="1" parent="WIyWlLk6GJQsqaUBKTNV-1">
          <mxGeometry x="160" y="1030" width="120" height="60" as="geometry" />
        </mxCell>
        <mxCell id="KTdyoz5PvURL2kulKBjL-66" value="Yes" style="text;html=1;align=center;verticalAlign=middle;resizable=0;points=[];autosize=1;strokeColor=none;fillColor=none;" vertex="1" parent="WIyWlLk6GJQsqaUBKTNV-1">
          <mxGeometry x="630" y="225" width="40" height="30" as="geometry" />
        </mxCell>
        <mxCell id="KTdyoz5PvURL2kulKBjL-70" value="" style="edgeStyle=orthogonalEdgeStyle;rounded=0;orthogonalLoop=1;jettySize=auto;html=1;" edge="1" parent="WIyWlLk6GJQsqaUBKTNV-1" source="KTdyoz5PvURL2kulKBjL-68" target="KTdyoz5PvURL2kulKBjL-58">
          <mxGeometry relative="1" as="geometry" />
        </mxCell>
        <mxCell id="KTdyoz5PvURL2kulKBjL-68" value="Click edit button" style="whiteSpace=wrap;html=1;" vertex="1" parent="WIyWlLk6GJQsqaUBKTNV-1">
          <mxGeometry x="510" y="605" width="120" height="60" as="geometry" />
        </mxCell>
      </root>
    </mxGraphModel>
  </diagram>
</mxfile>
